<svg width="512" height="512" viewBox="0 0 512 512" fill="none" xmlns="http://www.w3.org/2000/svg">
  <!-- Dark Layer (Back/Side of Hand) -->
  <path d="M128 350C128 350 148 240 200 160C230 110 240 60 256 60C272 60 280 80 270 120C260 160 240 300 180 440L140 440C100 440 128 350 128 350Z" fill="#059669"/>
  
  <!-- Light Layer (Front Face/Fingers) -->
  <path d="M256 60C240 60 230 110 200 160C148 240 128 350 128 350C128 350 160 440 340 440C380 440 390 400 390 400C400 390 410 370 420 350C430 330 430 310 410 310C410 310 430 290 430 270C430 250 420 230 400 230C400 230 420 220 420 200C420 170 400 160 380 160L250 160C250 160 265 120 275 100C280 80 272 60 256 60Z" fill="#10B981"/>
</svg>
