<?xml version="1.0" encoding="UTF-8" standalone="no"?><svg xmlns="http://www.w3.org/2000/svg" version="1.1" width="1376" height="1376" viewBox="1359 428 1376 1376">
<g id="color_1" fill="#108255" stroke="#108255" stroke-width="2.0" stroke-linejoin="round" vector-effect="non-scaling-stroke">
<path d="M2050,548 C2047,550 2039,550 2040,553 C2044,564 2061,581 2068,594 C2071,600 2072,609 2074,615 C2075,616 2078,617 2078,618 C2084,637 2091,663 2094,682 C2097,699 2097,722 2096,739 C2094,766 2088,801 2082,827 C2079,840 2069,856 2064,868 C2063,870 2065,873 2064,875 C2060,886 2055,901 2050,911 C2043,926 2031,945 2022,959 C2004,986 1979,1022 1958,1047 C1927,1085 1880,1132 1848,1170 C1837,1183 1825,1202 1816,1216 C1805,1233 1792,1257 1784,1276 C1778,1290 1772,1309 1768,1324 C1764,1341 1759,1363 1758,1380 C1757,1400 1758,1427 1760,1447 C1762,1462 1767,1482 1772,1497 C1777,1512 1787,1531 1794,1545 C1795,1547 1799,1548 1800,1550 C1802,1553 1803,1560 1806,1563 C1824,1582 1848,1608 1868,1625 C1876,1632 1889,1640 1898,1645 C1904,1648 1915,1650 1921,1653 C1922,1654 1921,1657 1922,1657 C1927,1658 1936,1658 1941,1659 C1945,1660 1948,1664 1952,1665 C1959,1667 1970,1668 1977,1671 C1978,1671 1977,1674 1978,1675 C1982,1677 1989,1680 1994,1681 C2012,1684 2036,1687 2054,1687 C2157,1688 2295,1689 2397,1685 C2406,1685 2417,1677 2425,1673 C2427,1672 2427,1668 2428,1667 C2430,1665 2435,1665 2437,1663 C2439,1662 2439,1658 2441,1656 C2444,1653 2448,1652 2451,1649 C2455,1645 2460,1638 2463,1633 C2468,1623 2473,1609 2475,1599 C2477,1589 2476,1576 2475,1566 C2474,1559 2470,1549 2467,1542 C2465,1538 2459,1533 2457,1529 C2456,1527 2453,1521 2455,1520 C2460,1516 2473,1516 2481,1513 C2486,1511 2493,1508 2497,1505 C2504,1499 2512,1490 2517,1483 C2520,1478 2524,1471 2525,1465 C2526,1462 2522,1457 2523,1456 C2523,1455 2528,1458 2529,1457 C2533,1450 2536,1436 2537,1427 C2538,1421 2538,1414 2537,1408 C2536,1400 2532,1388 2529,1382 C2528,1381 2524,1384 2523,1383 C2522,1380 2524,1372 2523,1368 C2523,1365 2521,1362 2519,1360 C2516,1357 2510,1354 2507,1351 C2506,1350 2506,1347 2507,1346 C2517,1339 2535,1333 2545,1325 C2551,1320 2559,1312 2563,1305 C2567,1299 2571,1289 2573,1281 C2575,1271 2577,1258 2577,1248 C2577,1241 2577,1232 2575,1226 C2572,1215 2565,1200 2559,1190 C2555,1184 2547,1177 2541,1172 C2538,1169 2532,1168 2529,1165 C2528,1164 2528,1161 2529,1160 C2535,1153 2547,1146 2553,1139 C2558,1134 2562,1125 2565,1119 C2568,1112 2571,1101 2571,1093 C2572,1081 2572,1064 2569,1052 C2567,1042 2560,1030 2555,1022 C2553,1019 2550,1016 2547,1014 C2546,1013 2543,1015 2542,1014 C2541,1013 2542,1010 2541,1008 C2540,1006 2537,1003 2535,1002 C2534,1002 2533,1005 2532,1004 C2530,1002 2528,996 2525,994 C2515,989 2500,982 2489,982 C2386,979 2246,984 2144,982 C2142,982 2143,978 2143,976 C2144,972 2148,967 2149,963 C2149,962 2147,959 2147,958 C2148,956 2152,955 2153,953 C2159,937 2165,915 2169,899 C2175,870 2183,832 2187,803 C2190,780 2193,748 2193,725 C2193,707 2190,682 2187,664 C2185,651 2180,634 2175,622 C2171,613 2165,601 2159,594 C2157,592 2152,593 2151,591 C2149,589 2150,584 2149,582 C2146,578 2141,573 2137,570 C2127,563 2112,555 2101,550 C2096,548 2088,546 2083,546 C2073,546 2060,547 2050,548 Z"/>
</g>
<g id="color_2" fill="#1F9869" stroke="#1F9869" stroke-width="2.0" stroke-linejoin="round" vector-effect="non-scaling-stroke">
<path d="M2113,552 C2105,550 2094,545 2085,544 C2076,543 2064,543 2056,544 C2049,545 2039,548 2034,552 C2027,557 2020,567 2016,574 C2014,578 2013,585 2012,590 C2009,619 2008,658 2004,687 C2001,707 1995,733 1990,753 C1988,762 1984,773 1980,781 C1973,796 1963,816 1954,831 C1944,848 1930,869 1918,885 C1899,910 1873,944 1852,967 C1835,986 1810,1010 1791,1026 C1765,1048 1727,1074 1700,1096 C1687,1107 1669,1121 1658,1134 C1641,1153 1620,1179 1606,1200 C1592,1221 1577,1251 1566,1274 C1558,1291 1550,1316 1544,1334 C1539,1349 1534,1370 1530,1386 C1527,1399 1524,1417 1522,1430 C1519,1450 1517,1478 1516,1498 C1515,1526 1515,1563 1516,1591 C1517,1605 1519,1625 1522,1639 C1523,1645 1526,1652 1528,1657 C1530,1662 1534,1669 1538,1673 C1542,1677 1550,1683 1556,1685 C1565,1687 1578,1687 1587,1687 C1591,1687 1597,1685 1601,1683 C1616,1675 1633,1661 1648,1653 C1658,1648 1673,1642 1684,1639 C1696,1636 1712,1632 1724,1631 C1737,1630 1754,1630 1767,1631 C1781,1632 1801,1636 1815,1639 C1860,1650 1919,1668 1964,1679 C1979,1683 2000,1687 2016,1687 C2127,1690 2274,1690 2385,1689 C2393,1689 2404,1686 2411,1683 C2419,1679 2430,1673 2437,1667 C2443,1662 2450,1655 2455,1649 C2461,1642 2468,1631 2471,1623 C2475,1612 2478,1596 2479,1585 C2480,1578 2479,1569 2477,1562 C2475,1554 2471,1543 2467,1536 C2465,1533 2461,1530 2459,1527 C2458,1526 2458,1523 2459,1522 C2469,1517 2485,1514 2495,1509 C2501,1506 2509,1499 2513,1493 C2519,1485 2525,1474 2529,1465 C2533,1455 2537,1440 2539,1429 C2540,1422 2540,1413 2539,1406 C2538,1400 2537,1392 2535,1386 C2533,1380 2530,1373 2527,1368 C2523,1361 2510,1351 2511,1346 C2512,1342 2527,1341 2533,1337 C2541,1332 2552,1322 2559,1315 C2564,1310 2568,1301 2571,1295 C2574,1287 2578,1276 2579,1267 C2580,1257 2580,1244 2579,1234 C2578,1225 2574,1214 2571,1206 C2569,1200 2565,1193 2561,1188 C2554,1180 2541,1171 2533,1163 C2532,1162 2532,1161 2533,1160 C2539,1154 2550,1148 2555,1141 C2561,1133 2569,1119 2571,1109 C2574,1094 2573,1073 2573,1058 C2573,1054 2571,1048 2569,1044 C2565,1036 2560,1025 2555,1018 C2550,1011 2542,1003 2535,998 C2529,993 2520,989 2513,986 C2506,983 2496,980 2489,980 C2388,979 2253,982 2152,982 C2150,982 2147,981 2147,979 C2151,961 2162,936 2167,917 C2173,896 2179,867 2183,845 C2188,817 2193,779 2195,751 C2196,738 2196,719 2195,706 C2194,690 2191,668 2187,652 C2183,637 2175,618 2169,604 C2166,598 2161,591 2157,586 C2152,580 2145,573 2139,568 C2132,562 2121,557 2113,552 Z M2050,547 C2060,546 2073,545 2083,545 C2088,545 2096,547 2101,549 C2112,554 2127,562 2137,569 C2142,572 2147,578 2150,582 C2152,584 2150,589 2152,591 C2153,592 2158,591 2159,593 C2165,601 2172,613 2176,622 C2181,634 2186,651 2188,664 C2191,681 2194,705 2194,722 C2194,746 2191,779 2188,803 C2184,832 2176,870 2170,899 C2166,915 2160,937 2154,953 C2153,955 2149,956 2148,958 C2148,959 2150,961 2150,963 C2149,968 2139,981 2144,981 C2240,986 2386,978 2489,981 C2500,981 2515,988 2525,993 C2528,995 2530,1001 2532,1003 C2533,1004 2534,1001 2535,1001 C2537,1002 2541,1006 2542,1008 C2543,1009 2541,1012 2542,1013 C2543,1014 2546,1012 2547,1013 C2550,1015 2554,1019 2556,1022 C2561,1030 2568,1042 2570,1052 C2573,1064 2573,1081 2572,1093 C2572,1101 2569,1112 2566,1119 C2563,1125 2559,1134 2554,1139 C2548,1146 2536,1153 2530,1160 C2529,1161 2529,1164 2530,1165 C2532,1167 2538,1169 2541,1171 C2547,1176 2556,1183 2560,1190 C2566,1200 2573,1215 2576,1226 C2578,1232 2578,1241 2578,1248 C2578,1258 2576,1271 2574,1281 C2572,1289 2568,1299 2564,1305 C2559,1312 2552,1321 2545,1326 C2535,1333 2518,1339 2508,1346 C2507,1347 2507,1350 2508,1351 C2511,1354 2517,1357 2520,1360 C2522,1362 2524,1365 2524,1368 C2525,1372 2523,1380 2524,1383 C2524,1384 2528,1380 2529,1381 C2533,1387 2536,1400 2538,1408 C2539,1414 2539,1421 2538,1427 C2537,1436 2534,1450 2530,1457 C2529,1458 2524,1455 2524,1456 C2523,1457 2527,1462 2526,1465 C2525,1471 2521,1478 2518,1483 C2513,1491 2504,1500 2497,1506 C2493,1509 2486,1512 2481,1514 C2474,1516 2461,1517 2456,1520 C2454,1521 2457,1527 2458,1529 C2460,1533 2466,1538 2468,1542 C2471,1549 2475,1559 2476,1566 C2477,1576 2478,1589 2476,1599 C2474,1609 2469,1624 2464,1633 C2458,1643 2446,1657 2437,1664 C2435,1665 2431,1662 2430,1662 C2430,1662 2434,1664 2434,1665 C2434,1666 2429,1667 2428,1668 C2427,1669 2427,1673 2425,1674 C2417,1678 2406,1686 2397,1686 C2295,1690 2157,1689 2054,1688 C2036,1688 2012,1685 1994,1682 C1989,1681 1982,1678 1978,1676 C1977,1675 1978,1672 1977,1672 C1970,1669 1959,1668 1952,1666 C1948,1665 1945,1661 1941,1660 C1936,1659 1927,1659 1922,1658 C1921,1658 1922,1655 1921,1654 C1915,1651 1904,1649 1898,1646 C1889,1641 1876,1633 1868,1626 C1848,1608 1823,1583 1805,1563 C1802,1560 1801,1553 1799,1550 C1798,1548 1794,1547 1793,1545 C1786,1531 1776,1512 1771,1497 C1766,1482 1761,1462 1759,1447 C1757,1427 1756,1400 1757,1380 C1758,1363 1763,1341 1767,1324 C1771,1309 1777,1290 1783,1276 C1791,1257 1804,1233 1815,1216 C1824,1202 1836,1183 1847,1170 C1879,1132 1926,1085 1957,1047 C1978,1022 2003,986 2021,959 C2030,945 2042,926 2049,911 C2054,901 2059,886 2063,875 C2064,873 2062,870 2063,868 C2068,856 2078,840 2081,827 C2087,801 2093,766 2095,739 C2096,722 2096,699 2093,682 C2090,663 2083,637 2077,618 C2077,617 2074,616 2073,615 C2071,609 2070,600 2067,594 C2060,581 2043,564 2039,553 C2038,550 2047,549 2050,547 Z"/>
</g>
</svg>
