<svg width="512" height="600" xmlns="http://www.w3.org/2000/svg">

 <g>
  <path id="svg_13" d="m365.03393,202.5c52.76924,39.86975 -1,69 -1,69c48.51025,45.10602 -5,82 -5,81.5c31.91464,35.39334 3.19138,70.69154 -10,77c46.38261,47.30813 -13,75.5 -13,75c-46.55556,-2.11111 -103.44444,-0.88889 -150,-3c-75.18405,-6.11676 -71.33336,-41.16664 -124,22c-65.82959,79.21577 -47.49009,-189.5561 0.1691,-237.71529c65.53139,-56.52082 97.27773,-75.7434 114.29887,-206.88064c7.23398,-76.94619 46.53203,-24.90407 46.53203,-25.40407c50.63789,68.58456 9.35911,138.56946 2.87261,148.8803l139.12739,-0.3803z" stroke="#000000" fill="#00b500"/>
 </g>
</svg>