<svg xmlns="http://www.w3.org/2000/svg" width="512" height="512" viewBox="0 0 512 512">
  <rect width="512" height="512" rx="96" fill="#0c0c0c" />
  <g transform="translate(76.8, 76.8) scale(0.7)">
    <g transform="translate(18.185428,-0.24969549)">
      <path fill="#108255" stroke="#108255" d="m 241.93147,511.80534 c -10.87042,-0.53833 -29.0764,-2.38034 -35.3483,-3.56726 -9.00894,-1.7058 -33.36359,-7.65339 -46.01763,-11.22713 -41.54234,-11.74601 -58.93759,-13.47127 -80.782185,-8.02309 -10.66286,2.65923 -20.884676,7.43286 -34.881301,16.29913 -14.139315,8.95057 -29.108828,7.44584 -36.4962961,-3.67752 -6.0059659,-9.04138 -8.08146169,-23.05746 -8.08146169,-54.54014 0,-28.49916 1.60202329,-47.76883 5.51303529,-66.24723 9.5213365,-44.98637 26.8387555,-81.38538 53.0354025,-111.48655 8.029575,-9.22299 20.249057,-20.09988 37.177319,-33.09119 35.147217,-26.96847 50.992337,-42.47631 75.301577,-73.71902 6.86211,-8.81437 21.18952,-30.04928 26.00856,-38.53287 5.1628,-9.09327 10.18939,-20.01556 12.70593,-27.604093 2.8084,-8.483591 7.25774,-30.172522 8.15929,-39.797636 0.36969,-3.923984 1.12206,-12.245425 1.67337,-18.484884 1.78363,-20.035021 3.19107,-25.431309 8.02308,-30.6719362 4.32612,-4.6893233 9.15165,-6.47943842 18.40706,-6.82319246 20.00907,-0.73939536 36.78816,9.68348566 46.80892,29.08937066 7.04371,13.633413 10.2283,29.750934 10.3191,52.192235 0.10377,25.048636 -4.4234,55.551946 -12.84213,86.587086 -2.10793,7.77014 -6.78427,22.97963 -7.85446,25.55454 -0.49941,1.20639 1.04424,1.22584 74.57516,0.90155 79.44609,-0.35025 78.79101,-0.3697 87.30703,2.61383 11.18174,3.9175 18.86107,11.18173 24.22493,22.92774 3.21702,7.04371 3.97587,10.86392 3.83966,19.354 -0.227,14.13931 -3.50888,22.24671 -12.63457,31.21675 l -5.69465,5.59735 2.51006,1.73823 c 17.67414,12.24542 23.56985,38.12427 13.53612,59.36567 -2.99001,6.33026 -11.69412,14.75547 -18.78324,18.18004 -4.89039,2.91866 -9.28135,0.89506 -4.39097,6.01245 3.07433,3.18459 7.30315,11.43469 8.71709,16.99961 1.91334,7.5561 1.9328,13.5037 0.0713,21.72785 -9.16422,40.45037 -39.35679,32.07186 -33.13659,39.45387 2.32196,2.75652 4.65689,8.16578 6.24595,14.45064 5.83733,23.08341 -11.44766,50.42158 -35.45855,56.0773 -4.03425,0.94695 -12.31029,1.08316 -75.87234,1.22584 -39.23984,0.0843 -73.38823,0.0583 -75.88531,-0.0713 z" />
      <path fill="#1F9869" stroke="#1F9869" d="m 241.47986,511.70015 c 10.85594,0.77703 -28.62479,-2.27515 -34.89669,-3.46207 -9.00894,-1.7058 -33.36359,-7.65339 -46.01763,-11.22713 -41.54234,-11.74601 -58.93759,-13.47127 -80.782185,-8.02309 -10.66286,2.65923 -20.884676,7.43286 -34.881301,16.29913 -14.139315,8.95057 -29.108828,7.44584 -36.4962961,-3.67752 -6.0059659,-9.04138 -8.08146169,-23.05746 -8.08146169,-54.54014 0,-28.49916 1.60202329,-47.76883 5.51303529,-66.24723 9.5213365,-44.98637 26.8387555,-81.38538 53.0354025,-111.48655 8.029575,-9.22299 20.249057,-20.09988 37.177319,-33.09119 35.147217,-26.96847 50.992337,-42.47631 75.301577,-73.71902 6.86211,-8.81437 21.18952,-30.04928 26.00856,-38.53287 5.1628,-9.09327 10.18939,-20.01556 12.70593,-27.604093 2.8084,-8.483591 7.25774,-30.172522 8.15929,-39.797636 0.36969,-3.923984 1.12206,-12.245425 1.67337,-18.484884 1.78363,-20.035021 3.18962,-25.432654 8.02308,-30.6719362 2.33759,-2.5338459 4.11947,-3.5422306 4.55,-3.7789903 0.42264,-0.2324186 0.30286,-0.083727 0.46597,0.119633 C 243.92371,17.471191 317.3542,110.71763 154.20574,273.72588 84.28172,343.58981 86.107286,500.57914 241.47986,511.70015 Z" />
    </g>
  </g>
</svg>